<svg width="24" height="24" viewBox="0 0 24 24" fill="none" xmlns="http://www.w3.org/2000/svg">
<g clip-path="url(#clip0_1_38)">
<path d="M13.06 3.28298C12.7788 3.00208 12.3975 2.8443 12 2.8443C11.6025 2.8443 11.2213 3.00208 10.94 3.28298L5.28103 8.93898C4.99964 9.22037 4.84155 9.60203 4.84155 9.99998C4.84155 10.3979 4.99964 10.7796 5.28103 11.061C5.56243 11.3424 5.94408 11.5005 6.34203 11.5005C6.73999 11.5005 7.12164 11.3424 7.40303 11.061L10.5 7.96498V19.5C10.5 19.8978 10.6581 20.2793 10.9394 20.5606C11.2207 20.8419 11.6022 21 12 21C12.3979 21 12.7794 20.8419 13.0607 20.5606C13.342 20.2793 13.5 19.8978 13.5 19.5V7.96498L16.596 11.061C16.7354 11.2003 16.9008 11.3108 17.0828 11.3862C17.2649 11.4616 17.46 11.5005 17.657 11.5005C17.8541 11.5005 18.0492 11.4616 18.2312 11.3862C18.4133 11.3108 18.5787 11.2003 18.718 11.061C18.8574 10.9216 18.9679 10.7562 19.0433 10.5742C19.1187 10.3921 19.1575 10.197 19.1575 9.99998C19.1575 9.80293 19.1187 9.60782 19.0433 9.42577C18.9679 9.24372 18.8574 9.07831 18.718 8.93898L13.06 3.28298Z" fill="white"/>
</g>
<defs>
<clipPath id="clip0_1_38">
<rect width="24" height="24" fill="white"/>
</clipPath>
</defs>
</svg>
